<svg id="visual" viewBox="0 0 900 600" width="100%" height="100%" xmlns="http://www.w3.org/2000/svg" xmlns:xlink="http://www.w3.org/1999/xlink" version="1.1"><path d="M0 379L15 381.2C30 383.3 60 387.7 90 398C120 408.3 150 424.7 180 426.2C210 427.7 240 414.3 270 413.2C300 412 330 423 360 421.3C390 419.7 420 405.3 450 408.8C480 412.3 510 433.7 540 431.5C570 429.3 600 403.7 630 405.5C660 407.3 690 436.7 720 442C750 447.3 780 428.7 810 416C840 403.3 870 396.7 885 393.3L900 390L900 0L885 0C870 0 840 0 810 0C780 0 750 0 720 0C690 0 660 0 630 0C600 0 570 0 540 0C510 0 480 0 450 0C420 0 390 0 360 0C330 0 300 0 270 0C240 0 210 0 180 0C150 0 120 0 90 0C60 0 30 0 15 0L0 0Z" fill="#1e1e2e"></path><path d="M0 409L15 405.8C30 402.7 60 396.3 90 399.2C120 402 150 414 180 416.5C210 419 240 412 270 397.5C300 383 330 361 360 348.3C390 335.7 420 332.3 450 349C480 365.7 510 402.3 540 419C570 435.7 600 432.3 630 428.7C660 425 690 421 720 412.7C750 404.3 780 391.7 810 386.2C840 380.7 870 382.3 885 383.2L900 384L900 0L885 0C870 0 840 0 810 0C780 0 750 0 720 0C690 0 660 0 630 0C600 0 570 0 540 0C510 0 480 0 450 0C420 0 390 0 360 0C330 0 300 0 270 0C240 0 210 0 180 0C150 0 120 0 90 0C60 0 30 0 15 0L0 0Z" fill="#514c71"></path><path d="M0 383L15 370.3C30 357.7 60 332.3 90 316.3C120 300.3 150 293.7 180 297.3C210 301 240 315 270 318.8C300 322.7 330 316.3 360 314.3C390 312.3 420 314.7 450 315.8C480 317 510 317 540 313.8C570 310.7 600 304.3 630 308.5C660 312.7 690 327.3 720 334.2C750 341 780 340 810 340C840 340 870 341 885 341.5L900 342L900 0L885 0C870 0 840 0 810 0C780 0 750 0 720 0C690 0 660 0 630 0C600 0 570 0 540 0C510 0 480 0 450 0C420 0 390 0 360 0C330 0 300 0 270 0C240 0 210 0 180 0C150 0 120 0 90 0C60 0 30 0 15 0L0 0Z" fill="#907dba"></path><path d="M0 232L15 239.8C30 247.7 60 263.3 90 271.7C120 280 150 281 180 284C210 287 240 292 270 294.8C300 297.7 330 298.3 360 292C390 285.7 420 272.3 450 266.8C480 261.3 510 263.7 540 271.7C570 279.7 600 293.3 630 301.3C660 309.3 690 311.7 720 313.7C750 315.7 780 317.3 810 309.3C840 301.3 870 283.7 885 274.8L900 266L900 0L885 0C870 0 840 0 810 0C780 0 750 0 720 0C690 0 660 0 630 0C600 0 570 0 540 0C510 0 480 0 450 0C420 0 390 0 360 0C330 0 300 0 270 0C240 0 210 0 180 0C150 0 120 0 90 0C60 0 30 0 15 0L0 0Z" fill="#cba5f7"></path><path d="M0 205L15 206.8C30 208.7 60 212.3 90 220C120 227.7 150 239.3 180 247C210 254.7 240 258.3 270 250.2C300 242 330 222 360 216.8C390 211.7 420 221.3 450 231.7C480 242 510 253 540 253.7C570 254.3 600 244.7 630 232.2C660 219.7 690 204.3 720 204.5C750 204.7 780 220.3 810 219.8C840 219.3 870 202.7 885 194.3L900 186L900 0L885 0C870 0 840 0 810 0C780 0 750 0 720 0C690 0 660 0 630 0C600 0 570 0 540 0C510 0 480 0 450 0C420 0 390 0 360 0C330 0 300 0 270 0C240 0 210 0 180 0C150 0 120 0 90 0C60 0 30 0 15 0L0 0Z" fill="#cba5f7"></path><path d="M0 165L15 162.2C30 159.3 60 153.7 90 159.5C120 165.3 150 182.7 180 192.2C210 201.7 240 203.3 270 195.5C300 187.7 330 170.3 360 160.7C390 151 420 149 450 156.8C480 164.7 510 182.3 540 187.8C570 193.3 600 186.7 630 181C660 175.3 690 170.7 720 174C750 177.3 780 188.7 810 189.2C840 189.7 870 179.3 885 174.2L900 169L900 0L885 0C870 0 840 0 810 0C780 0 750 0 720 0C690 0 660 0 630 0C600 0 570 0 540 0C510 0 480 0 450 0C420 0 390 0 360 0C330 0 300 0 270 0C240 0 210 0 180 0C150 0 120 0 90 0C60 0 30 0 15 0L0 0Z" fill="#907dba"></path><path d="M0 134L15 127C30 120 60 106 90 107C120 108 150 124 180 129.8C210 135.7 240 131.3 270 124.3C300 117.3 330 107.7 360 108.3C390 109 420 120 450 127C480 134 510 137 540 138.3C570 139.7 600 139.3 630 133.8C660 128.3 690 117.7 720 111.2C750 104.7 780 102.3 810 100.7C840 99 870 98 885 97.5L900 97L900 0L885 0C870 0 840 0 810 0C780 0 750 0 720 0C690 0 660 0 630 0C600 0 570 0 540 0C510 0 480 0 450 0C420 0 390 0 360 0C330 0 300 0 270 0C240 0 210 0 180 0C150 0 120 0 90 0C60 0 30 0 15 0L0 0Z" fill="#514c71"></path><path d="M0 77L15 71.2C30 65.3 60 53.7 90 47.8C120 42 150 42 180 42.2C210 42.3 240 42.7 270 51C300 59.3 330 75.7 360 76.8C390 78 420 64 450 56C480 48 510 46 540 52.7C570 59.3 600 74.7 630 80.3C660 86 690 82 720 81.2C750 80.3 780 82.7 810 78C840 73.3 870 61.7 885 55.8L900 50L900 0L885 0C870 0 840 0 810 0C780 0 750 0 720 0C690 0 660 0 630 0C600 0 570 0 540 0C510 0 480 0 450 0C420 0 390 0 360 0C330 0 300 0 270 0C240 0 210 0 180 0C150 0 120 0 90 0C60 0 30 0 15 0L0 0Z" fill="#1e1e2e"></path></svg>