<svg id="visual" viewBox="0 0 900 600" width="900" height="600" xmlns="http://www.w3.org/2000/svg" xmlns:xlink="http://www.w3.org/1999/xlink" version="1.1"><path d="M0 480L15 481.3C30 482.7 60 485.3 90 478.3C120 471.3 150 454.7 180 445.7C210 436.7 240 435.3 270 436.3C300 437.3 330 440.7 360 441.3C390 442 420 440 450 448.2C480 456.3 510 474.7 540 475C570 475.3 600 457.7 630 453.7C660 449.7 690 459.3 720 456.7C750 454 780 439 810 434.2C840 429.3 870 434.7 885 437.3L900 440L900 0L885 0C870 0 840 0 810 0C780 0 750 0 720 0C690 0 660 0 630 0C600 0 570 0 540 0C510 0 480 0 450 0C420 0 390 0 360 0C330 0 300 0 270 0C240 0 210 0 180 0C150 0 120 0 90 0C60 0 30 0 15 0L0 0Z" fill="#ffffff"></path><path d="M0 364L15 374.8C30 385.7 60 407.3 90 410C120 412.7 150 396.3 180 395C210 393.7 240 407.3 270 404.8C300 402.3 330 383.7 360 378C390 372.3 420 379.7 450 383.2C480 386.7 510 386.3 540 384.5C570 382.7 600 379.3 630 385.8C660 392.3 690 408.7 720 408.3C750 408 780 391 810 388.5C840 386 870 398 885 404L900 410L900 0L885 0C870 0 840 0 810 0C780 0 750 0 720 0C690 0 660 0 630 0C600 0 570 0 540 0C510 0 480 0 450 0C420 0 390 0 360 0C330 0 300 0 270 0C240 0 210 0 180 0C150 0 120 0 90 0C60 0 30 0 15 0L0 0Z" fill="#eddefd"></path><path d="M0 358L15 361.7C30 365.3 60 372.7 90 364C120 355.3 150 330.7 180 318.5C210 306.3 240 306.7 270 309.8C300 313 330 319 360 318.3C390 317.7 420 310.3 450 318.3C480 326.3 510 349.7 540 354.2C570 358.7 600 344.3 630 334C660 323.7 690 317.3 720 316C750 314.7 780 318.3 810 323.8C840 329.3 870 336.7 885 340.3L900 344L900 0L885 0C870 0 840 0 810 0C780 0 750 0 720 0C690 0 660 0 630 0C600 0 570 0 540 0C510 0 480 0 450 0C420 0 390 0 360 0C330 0 300 0 270 0C240 0 210 0 180 0C150 0 120 0 90 0C60 0 30 0 15 0L0 0Z" fill="#dbbefa"></path><path d="M0 299L15 302.2C30 305.3 60 311.7 90 307.3C120 303 150 288 180 281.3C210 274.7 240 276.3 270 272.3C300 268.3 330 258.7 360 254.5C390 250.3 420 251.7 450 257.8C480 264 510 275 540 284.3C570 293.7 600 301.3 630 308.5C660 315.7 690 322.3 720 313C750 303.7 780 278.3 810 267.2C840 256 870 259 885 260.5L900 262L900 0L885 0C870 0 840 0 810 0C780 0 750 0 720 0C690 0 660 0 630 0C600 0 570 0 540 0C510 0 480 0 450 0C420 0 390 0 360 0C330 0 300 0 270 0C240 0 210 0 180 0C150 0 120 0 90 0C60 0 30 0 15 0L0 0Z" fill="#cba4f7"></path><path d="M0 190L15 199.3C30 208.7 60 227.3 90 237C120 246.7 150 247.3 180 246.7C210 246 240 244 270 242.5C300 241 330 240 360 243.3C390 246.7 420 254.3 450 248.3C480 242.3 510 222.7 540 221.2C570 219.7 600 236.3 630 245.5C660 254.7 690 256.3 720 250.5C750 244.7 780 231.3 810 227.8C840 224.3 870 230.7 885 233.8L900 237L900 0L885 0C870 0 840 0 810 0C780 0 750 0 720 0C690 0 660 0 630 0C600 0 570 0 540 0C510 0 480 0 450 0C420 0 390 0 360 0C330 0 300 0 270 0C240 0 210 0 180 0C150 0 120 0 90 0C60 0 30 0 15 0L0 0Z" fill="#cba4f7"></path><path d="M0 165L15 169.7C30 174.3 60 183.7 90 180.2C120 176.7 150 160.3 180 154.2C210 148 240 152 270 155.8C300 159.7 330 163.3 360 164.2C390 165 420 163 450 159.3C480 155.7 510 150.3 540 155.3C570 160.3 600 175.7 630 181.2C660 186.7 690 182.3 720 176.3C750 170.3 780 162.7 810 156.5C840 150.3 870 145.7 885 143.3L900 141L900 0L885 0C870 0 840 0 810 0C780 0 750 0 720 0C690 0 660 0 630 0C600 0 570 0 540 0C510 0 480 0 450 0C420 0 390 0 360 0C330 0 300 0 270 0C240 0 210 0 180 0C150 0 120 0 90 0C60 0 30 0 15 0L0 0Z" fill="#dbbefa"></path><path d="M0 94L15 98C30 102 60 110 90 118.7C120 127.3 150 136.7 180 139.7C210 142.7 240 139.3 270 133.7C300 128 330 120 360 121.5C390 123 420 134 450 134.8C480 135.7 510 126.3 540 122.8C570 119.3 600 121.7 630 126.8C660 132 690 140 720 139.5C750 139 780 130 810 119.7C840 109.3 870 97.7 885 91.8L900 86L900 0L885 0C870 0 840 0 810 0C780 0 750 0 720 0C690 0 660 0 630 0C600 0 570 0 540 0C510 0 480 0 450 0C420 0 390 0 360 0C330 0 300 0 270 0C240 0 210 0 180 0C150 0 120 0 90 0C60 0 30 0 15 0L0 0Z" fill="#eddefd"></path><path d="M0 89L15 78.2C30 67.3 60 45.7 90 38.8C120 32 150 40 180 48C210 56 240 64 270 64.2C300 64.3 330 56.7 360 59.3C390 62 420 75 450 80.8C480 86.7 510 85.3 540 78.3C570 71.3 600 58.7 630 57.2C660 55.7 690 65.3 720 70C750 74.7 780 74.3 810 74.2C840 74 870 74 885 74L900 74L900 0L885 0C870 0 840 0 810 0C780 0 750 0 720 0C690 0 660 0 630 0C600 0 570 0 540 0C510 0 480 0 450 0C420 0 390 0 360 0C330 0 300 0 270 0C240 0 210 0 180 0C150 0 120 0 90 0C60 0 30 0 15 0L0 0Z" fill="#ffffff"></path></svg>