<svg id="visual" viewBox="0 0 900 900" width="900" height="900" xmlns="http://www.w3.org/2000/svg" xmlns:xlink="http://www.w3.org/1999/xlink" version="1.1"><path d="M0 824L21.5 820.8C43 817.7 86 811.3 128.8 794C171.7 776.7 214.3 748.3 257.2 737.5C300 726.7 343 733.3 385.8 750.7C428.7 768 471.3 796 514.2 800.3C557 804.7 600 785.3 642.8 786.5C685.7 787.7 728.3 809.3 771.2 813.8C814 818.3 857 805.7 878.5 799.3L900 793L900 0L878.5 0C857 0 814 0 771.2 0C728.3 0 685.7 0 642.8 0C600 0 557 0 514.2 0C471.3 0 428.7 0 385.8 0C343 0 300 0 257.2 0C214.3 0 171.7 0 128.8 0C86 0 43 0 21.5 0L0 0Z" fill="#f0f1f5"></path><path d="M0 655L21.5 662.8C43 670.7 86 686.3 128.8 684.5C171.7 682.7 214.3 663.3 257.2 656.3C300 649.3 343 654.7 385.8 663.2C428.7 671.7 471.3 683.3 514.2 692.8C557 702.3 600 709.7 642.8 710.8C685.7 712 728.3 707 771.2 706C814 705 857 708 878.5 709.5L900 711L900 0L878.5 0C857 0 814 0 771.2 0C728.3 0 685.7 0 642.8 0C600 0 557 0 514.2 0C471.3 0 428.7 0 385.8 0C343 0 300 0 257.2 0C214.3 0 171.7 0 128.8 0C86 0 43 0 21.5 0L0 0Z" fill="#c2cbfb"></path><path d="M0 546L21.5 540.7C43 535.3 86 524.7 128.8 529.2C171.7 533.7 214.3 553.3 257.2 569.7C300 586 343 599 385.8 608.7C428.7 618.3 471.3 624.7 514.2 616C557 607.3 600 583.7 642.8 578.3C685.7 573 728.3 586 771.2 584.2C814 582.3 857 565.7 878.5 557.3L900 549L900 0L878.5 0C857 0 814 0 771.2 0C728.3 0 685.7 0 642.8 0C600 0 557 0 514.2 0C471.3 0 428.7 0 385.8 0C343 0 300 0 257.2 0C214.3 0 171.7 0 128.8 0C86 0 43 0 21.5 0L0 0Z" fill="#96a5fd"></path><path d="M0 468L21.5 468.3C43 468.7 86 469.3 128.8 479.3C171.7 489.3 214.3 508.7 257.2 505C300 501.3 343 474.7 385.8 457.3C428.7 440 471.3 432 514.2 431.3C557 430.7 600 437.3 642.8 454.5C685.7 471.7 728.3 499.3 771.2 509.8C814 520.3 857 513.7 878.5 510.3L900 507L900 0L878.5 0C857 0 814 0 771.2 0C728.3 0 685.7 0 642.8 0C600 0 557 0 514.2 0C471.3 0 428.7 0 385.8 0C343 0 300 0 257.2 0C214.3 0 171.7 0 128.8 0C86 0 43 0 21.5 0L0 0Z" fill="#7287fd"></path><path d="M0 410L21.5 398.5C43 387 86 364 128.8 359.8C171.7 355.7 214.3 370.3 257.2 376.7C300 383 343 381 385.8 378.2C428.7 375.3 471.3 371.7 514.2 370C557 368.3 600 368.7 642.8 373.7C685.7 378.7 728.3 388.3 771.2 393.5C814 398.7 857 399.3 878.5 399.7L900 400L900 0L878.5 0C857 0 814 0 771.2 0C728.3 0 685.7 0 642.8 0C600 0 557 0 514.2 0C471.3 0 428.7 0 385.8 0C343 0 300 0 257.2 0C214.3 0 171.7 0 128.8 0C86 0 43 0 21.5 0L0 0Z" fill="#7287fd"></path><path d="M0 316L21.5 317C43 318 86 320 128.8 311.2C171.7 302.3 214.3 282.7 257.2 277C300 271.3 343 279.7 385.8 291C428.7 302.3 471.3 316.7 514.2 314.7C557 312.7 600 294.3 642.8 292.7C685.7 291 728.3 306 771.2 310.8C814 315.7 857 310.3 878.5 307.7L900 305L900 0L878.5 0C857 0 814 0 771.2 0C728.3 0 685.7 0 642.8 0C600 0 557 0 514.2 0C471.3 0 428.7 0 385.8 0C343 0 300 0 257.2 0C214.3 0 171.7 0 128.8 0C86 0 43 0 21.5 0L0 0Z" fill="#96a5fd"></path><path d="M0 231L21.5 225.7C43 220.3 86 209.7 128.8 207.3C171.7 205 214.3 211 257.2 215.5C300 220 343 223 385.8 225.7C428.7 228.3 471.3 230.7 514.2 230.2C557 229.7 600 226.3 642.8 216.3C685.7 206.3 728.3 189.7 771.2 190.2C814 190.7 857 208.3 878.5 217.2L900 226L900 0L878.5 0C857 0 814 0 771.2 0C728.3 0 685.7 0 642.8 0C600 0 557 0 514.2 0C471.3 0 428.7 0 385.8 0C343 0 300 0 257.2 0C214.3 0 171.7 0 128.8 0C86 0 43 0 21.5 0L0 0Z" fill="#c2cbfb"></path><path d="M0 68L21.5 79.3C43 90.7 86 113.3 128.8 123.7C171.7 134 214.3 132 257.2 128.7C300 125.3 343 120.7 385.8 121.5C428.7 122.3 471.3 128.7 514.2 118.2C557 107.7 600 80.3 642.8 67C685.7 53.7 728.3 54.3 771.2 69.5C814 84.7 857 114.3 878.5 129.2L900 144L900 0L878.5 0C857 0 814 0 771.2 0C728.3 0 685.7 0 642.8 0C600 0 557 0 514.2 0C471.3 0 428.7 0 385.8 0C343 0 300 0 257.2 0C214.3 0 171.7 0 128.8 0C86 0 43 0 21.5 0L0 0Z" fill="#f0f1f5"></path></svg>