<svg id="visual" viewBox="0 0 900 600" width="900" height="600" xmlns="http://www.w3.org/2000/svg" xmlns:xlink="http://www.w3.org/1999/xlink" version="1.1"><rect x="0" y="0" width="900" height="600" fill="#001220"></rect><path d="M0 232L21.5 219.3C43 206.7 86 181.3 128.8 170.8C171.7 160.3 214.3 164.7 257.2 174.8C300 185 343 201 385.8 205.2C428.7 209.3 471.3 201.7 514.2 192.8C557 184 600 174 642.8 182.7C685.7 191.3 728.3 218.7 771.2 224.7C814 230.7 857 215.3 878.5 207.7L900 200L900 0L878.5 0C857 0 814 0 771.2 0C728.3 0 685.7 0 642.8 0C600 0 557 0 514.2 0C471.3 0 428.7 0 385.8 0C343 0 300 0 257.2 0C214.3 0 171.7 0 128.8 0C86 0 43 0 21.5 0L0 0Z" fill="#fa7268"></path><path d="M0 145L21.5 153.5C43 162 86 179 128.8 183.2C171.7 187.3 214.3 178.7 257.2 166.5C300 154.3 343 138.7 385.8 133C428.7 127.3 471.3 131.7 514.2 143C557 154.3 600 172.7 642.8 172C685.7 171.3 728.3 151.7 771.2 150.3C814 149 857 166 878.5 174.5L900 183L900 0L878.5 0C857 0 814 0 771.2 0C728.3 0 685.7 0 642.8 0C600 0 557 0 514.2 0C471.3 0 428.7 0 385.8 0C343 0 300 0 257.2 0C214.3 0 171.7 0 128.8 0C86 0 43 0 21.5 0L0 0Z" fill="#ef5f67"></path><path d="M0 139L21.5 135.3C43 131.7 86 124.3 128.8 121.2C171.7 118 214.3 119 257.2 123.7C300 128.3 343 136.7 385.8 134.7C428.7 132.7 471.3 120.3 514.2 111.5C557 102.7 600 97.3 642.8 95.2C685.7 93 728.3 94 771.2 95.8C814 97.7 857 100.3 878.5 101.7L900 103L900 0L878.5 0C857 0 814 0 771.2 0C728.3 0 685.7 0 642.8 0C600 0 557 0 514.2 0C471.3 0 428.7 0 385.8 0C343 0 300 0 257.2 0C214.3 0 171.7 0 128.8 0C86 0 43 0 21.5 0L0 0Z" fill="#e34c67"></path><path d="M0 112L21.5 109.7C43 107.3 86 102.7 128.8 98.2C171.7 93.7 214.3 89.3 257.2 85C300 80.7 343 76.3 385.8 71.7C428.7 67 471.3 62 514.2 62.3C557 62.7 600 68.3 642.8 76.7C685.7 85 728.3 96 771.2 95.7C814 95.3 857 83.7 878.5 77.8L900 72L900 0L878.5 0C857 0 814 0 771.2 0C728.3 0 685.7 0 642.8 0C600 0 557 0 514.2 0C471.3 0 428.7 0 385.8 0C343 0 300 0 257.2 0C214.3 0 171.7 0 128.8 0C86 0 43 0 21.5 0L0 0Z" fill="#d53867"></path><path d="M0 56L21.5 59C43 62 86 68 128.8 65.3C171.7 62.7 214.3 51.3 257.2 49C300 46.7 343 53.3 385.8 55.8C428.7 58.3 471.3 56.7 514.2 57.5C557 58.3 600 61.7 642.8 64.8C685.7 68 728.3 71 771.2 68.5C814 66 857 58 878.5 54L900 50L900 0L878.5 0C857 0 814 0 771.2 0C728.3 0 685.7 0 642.8 0C600 0 557 0 514.2 0C471.3 0 428.7 0 385.8 0C343 0 300 0 257.2 0C214.3 0 171.7 0 128.8 0C86 0 43 0 21.5 0L0 0Z" fill="#c62368"></path></svg>